<svg width="80" height="58" viewBox="0 0 80 58" fill="none" xmlns="http://www.w3.org/2000/svg">
<path d="M26.8265 41.5278H15.5631C14.5991 41.5278 13.8176 40.7464 13.8176 39.7824V24.9457C13.8176 23.9817 14.5991 23.2002 15.5631 23.2002H64.4368C65.4008 23.2002 66.1823 23.9817 66.1823 24.9457V39.7824C66.1823 40.7464 65.4008 41.5278 64.4368 41.5278H53.1852" stroke="#0E478A" stroke-width="1.5" stroke-miterlimit="10"/>
<path d="M26.9082 36.667H53.0472V50.2547C53.0472 51.2181 52.265 52.0003 51.3017 52.0003H28.6537C27.6903 52.0003 26.9082 51.2181 26.9082 50.2547V36.667Z" stroke="#0E478A" stroke-width="1.5" stroke-miterlimit="10"/>
<path d="M22.545 41.5285V35.4193C22.545 34.4553 23.3265 33.6738 24.2905 33.6738H55.7094C56.6734 33.6738 57.4548 34.4553 57.4548 35.4193V41.5285" stroke="#0E478A" stroke-width="1.5" stroke-miterlimit="10"/>
<path d="M53.0906 23.2004H26.9082V4H44.3806L53.0906 12.6451V23.2004Z" stroke="#0E478A" stroke-width="1.5" stroke-miterlimit="10"/>
<path d="M53.0913 12.7275H44.3639V4" stroke="#0E478A" stroke-width="1.5" stroke-miterlimit="10"/>
<path d="M49.454 40.6562H30.2537" stroke="#0E478A" stroke-width="1.5" stroke-miterlimit="10" stroke-linecap="round"/>
<path d="M49.454 44.1455H30.2537" stroke="#0E478A" stroke-width="1.5" stroke-miterlimit="10" stroke-linecap="round"/>
<path d="M49.454 47.6367H30.2537" stroke="#0E478A" stroke-width="1.5" stroke-miterlimit="10" stroke-linecap="round"/>
</svg>
