<svg width="80" height="56" viewBox="0 0 80 56" fill="none" xmlns="http://www.w3.org/2000/svg">
<path d="M29.6032 42.2247H26.1918C25.4144 42.2247 24.7842 41.5945 24.7842 40.8171V8.24353C24.7842 7.46614 25.4144 6.83594 26.1918 6.83594H61.3815C62.1589 6.83594 62.7891 7.46614 62.7891 8.24353V42.2247H40.7078" stroke="#0E478A" stroke-width="1.5" stroke-miterlimit="10"/>
<path d="M34.99 48.0185C38.1001 48.0185 40.6213 45.4973 40.6213 42.3872C40.6213 39.2771 38.1001 36.7559 34.99 36.7559C31.8799 36.7559 29.3586 39.2771 29.3586 42.3872C29.3586 45.4973 31.8799 48.0185 34.99 48.0185Z" stroke="#0E478A" stroke-width="1.5" stroke-miterlimit="10"/>
<path d="M70.1778 48.0185C73.288 48.0185 75.8092 45.4973 75.8092 42.3872C75.8092 39.2771 73.288 36.7559 70.1778 36.7559C67.0677 36.7559 64.5465 39.2771 64.5465 42.3872C64.5465 45.4973 67.0677 48.0185 70.1778 48.0185Z" stroke="#0E478A" stroke-width="1.5" stroke-miterlimit="10"/>
<path d="M64.6952 42.2246H62.9725" stroke="#0E478A" stroke-width="1.5" stroke-miterlimit="10"/>
<path d="M62.9725 15.6338H71.5604C72.7711 15.6338 74.1023 16.0145 75.0359 19.1182C75.9694 22.2218 77.9198 29.0885 77.9198 29.0885V40.675C77.9198 41.5311 77.3065 42.2251 76.55 42.2251H75.9215" stroke="#0E478A" stroke-width="1.5" stroke-miterlimit="10"/>
<path d="M77.619 29.1973H63.1675" stroke="#0E478A" stroke-width="1.5" stroke-miterlimit="10"/>
<path d="M25.4162 41.1053L4.64456 51.1001C4.38753 51.2238 4.10212 51.1639 4.00708 50.9664L2.52116 47.8783C2.42613 47.6808 2.55745 47.4204 2.81448 47.2968L23.7603 37.2181L24.7839 36.7559" stroke="#0E478A" stroke-width="1.5" stroke-miterlimit="10"/>
<path d="M7.04194 45.3292L1.4801 32.7163L14.9115 26.3359L20.3233 38.6085" stroke="#0E478A" stroke-width="1.5" stroke-miterlimit="10"/>
<path d="M10.187 28.6777L5.61011 30.7725L7.09618 34.0194L11.6731 31.9247L10.187 28.6777Z" stroke="#0E478A" stroke-width="1.5" stroke-miterlimit="10"/>
<path d="M36.5508 16.4268L8.29711 16.4268" stroke="#0E478A" stroke-width="1.5" stroke-miterlimit="10"/>
<path d="M12.8481 12.1112L8.20751 16.4257L12.8481 20.7412" stroke="#0E478A" stroke-width="1.5"/>
</svg>
