<svg width="24" height="24" viewBox="0 0 24 24" fill="none" xmlns="http://www.w3.org/2000/svg">
    <path fill-rule="evenodd" clip-rule="evenodd"
        d="M10.4151 2.05891C10.5576 1.95729 10.7555 1.99043 10.8571 2.13293C11.26 2.69796 11.3522 3.19536 11.2541 3.6816C11.1809 4.04448 10.9975 4.39671 10.8258 4.72645C10.7873 4.80041 10.7494 4.87324 10.7134 4.94481C10.5492 5.2717 10.5949 5.527 10.6724 5.70408C10.713 5.79689 10.7641 5.87095 10.805 5.92144C10.8252 5.94641 10.8422 5.96477 10.8531 5.97591C10.8585 5.98145 10.8623 5.98512 10.8642 5.98685L10.8651 5.98774C10.9945 6.10379 11.0063 6.30271 10.8911 6.43329C10.7753 6.56451 10.5751 6.57702 10.4438 6.46123C10.4439 6.46127 10.4443 6.46079 10.4701 6.43158C10.4962 6.40195 10.5484 6.34277 10.6526 6.2246L10.4438 6.46122L10.4427 6.46024L10.4414 6.45904L10.438 6.45595L10.4285 6.4471C10.421 6.44002 10.4113 6.43055 10.3998 6.41877C10.3768 6.39526 10.3464 6.36223 10.3124 6.32023C10.2449 6.23679 10.1602 6.11459 10.0918 5.95815C9.95113 5.63671 9.88525 5.18147 10.1471 4.66028C10.1939 4.56713 10.239 4.48004 10.2817 4.39756L10.2817 4.39743L10.2817 4.39742L10.2817 4.39741C10.4487 4.0749 10.579 3.82303 10.6328 3.55626C10.692 3.26319 10.6555 2.94181 10.3411 2.5009C10.2395 2.3584 10.2726 2.16052 10.4151 2.05891ZM3 9.17417C3 8.38888 3.63668 7.7522 4.42198 7.7522H17.4068C18.1921 7.7522 18.8288 8.38888 18.8288 9.17417V9.55358H19.709C20.4518 9.55358 21.131 10.0866 21.131 10.8328V13.6047C21.131 14.351 20.4518 14.884 19.709 14.884H18.4059C17.8683 16.4788 16.8375 17.8461 15.4946 18.8034H18.6906V19.6728C18.6906 20.7627 17.806 21.6473 16.7161 21.6473H5.11263C4.02274 21.6473 3.1381 20.7627 3.1381 19.6728V18.8034H6.33419C4.3988 17.4237 3.11151 15.1923 3.01484 12.6555L3.01443 12.6527L3.01443 12.6527C3.00946 12.618 3 12.5522 3 12.4894V9.17417ZM18.5903 14.2502H19.709C20.1869 14.2502 20.4972 13.9215 20.4972 13.6047V10.8328C20.4972 10.5161 20.1869 10.1874 19.709 10.1874H18.8288V12.4894C18.8288 12.5522 18.8193 12.618 18.8143 12.6527L18.8139 12.6555C18.7931 13.2031 18.7167 13.7365 18.5903 14.2502ZM14.41 19.4524L14.4024 19.4371H7.3981L7.39611 19.4411L7.38812 19.4371H3.77188V19.6728C3.77188 20.4127 4.37276 21.0136 5.11263 21.0136H16.7161C17.4559 21.0136 18.0568 20.4127 18.0568 19.6728V19.4371H14.4406L14.41 19.4524ZM18.1812 12.6164C18.0841 15.3057 16.5327 17.6245 14.2878 18.8034H7.54096C7.50193 18.7829 7.46311 18.762 7.4245 18.7409C5.24246 17.5436 3.74296 15.2589 3.6476 12.6164L3.64707 12.6017L3.64518 12.5872C3.64249 12.5664 3.64037 12.5511 3.63871 12.5391C3.63513 12.5133 3.63377 12.5035 3.63377 12.4894V9.17417C3.63377 8.7389 3.98671 8.38597 4.42198 8.38597H17.4068C17.8421 8.38597 18.195 8.7389 18.195 9.17417V12.4894C18.195 12.5035 18.1936 12.5133 18.1901 12.5391C18.1884 12.5511 18.1863 12.5664 18.1836 12.5872L18.1817 12.6017L18.1812 12.6164ZM14.4535 2.13293C14.3519 1.99043 14.154 1.95729 14.0115 2.05891C13.869 2.16052 13.8359 2.3584 13.9375 2.5009C14.2519 2.94181 14.2884 3.26319 14.2292 3.55626C14.1754 3.82303 14.045 4.0749 13.8781 4.39742L13.8781 4.39743L13.8781 4.39748C13.8354 4.47998 13.7903 4.56711 13.7435 4.66028C13.4816 5.18147 13.5475 5.63671 13.6882 5.95815C13.7566 6.11459 13.8412 6.23679 13.9088 6.32023C13.9428 6.36223 13.9732 6.39526 13.9961 6.41877C14.0076 6.43055 14.0174 6.44002 14.0248 6.4471L14.0344 6.45595L14.0378 6.45904L14.0391 6.46024L14.0397 6.46076L14.04 6.461C14.0401 6.46111 14.0402 6.46122 14.2499 6.22362L14.0402 6.46122C14.1714 6.57702 14.3717 6.56451 14.4875 6.43329C14.6027 6.30271 14.5909 6.1038 14.4615 5.98775L14.4605 5.98685C14.4587 5.98512 14.4549 5.98145 14.4495 5.97591C14.4386 5.96477 14.4216 5.94641 14.4014 5.92144C14.3605 5.87095 14.3094 5.79689 14.2688 5.70408C14.1913 5.527 14.1456 5.2717 14.3098 4.94481C14.3457 4.87328 14.3836 4.80048 14.4221 4.72655L14.4222 4.72645C14.5939 4.39671 14.7773 4.04448 14.8505 3.6816C14.9486 3.19536 14.8564 2.69796 14.4535 2.13293ZM4.68055 12.5111V9.87007H5.31432V12.5111C5.31432 12.5124 5.31444 12.517 5.31586 12.5288L5.31872 12.5502L5.31924 12.5539L5.32288 12.5807L5.32477 12.5953L5.3253 12.6099C5.37226 13.9113 5.85126 15.1019 6.62369 16.0425L6.13391 16.4447C5.27962 15.4045 4.74816 14.0877 4.69256 12.6494C4.68861 12.6222 4.68055 12.565 4.68055 12.5111ZM7.16315 2.13293C7.06154 1.99043 6.86365 1.95729 6.72116 2.05891C6.57867 2.16052 6.54553 2.3584 6.64714 2.5009C6.96156 2.94181 6.99802 3.26319 6.93889 3.55626C6.88506 3.82303 6.7547 4.0749 6.58778 4.39742L6.58777 4.39743C6.54506 4.47994 6.49996 4.56708 6.45314 4.66028C6.19128 5.18147 6.25717 5.63671 6.39783 5.95815C6.46628 6.11459 6.55089 6.23679 6.61845 6.32023C6.65245 6.36223 6.68282 6.39526 6.70579 6.41877C6.7173 6.43055 6.72702 6.44002 6.7345 6.4471L6.74401 6.45595L6.74741 6.45904L6.74876 6.46024L6.74987 6.46122C6.8811 6.57702 7.08135 6.56451 7.19714 6.43329C7.31237 6.30271 7.30055 6.10379 7.17115 5.98774L7.1702 5.98685C7.16838 5.98512 7.16457 5.98145 7.15915 5.97591C7.14827 5.96477 7.13124 5.94641 7.11103 5.92144C7.07015 5.87095 7.01906 5.79689 6.97844 5.70408C6.90095 5.527 6.85522 5.2717 7.01945 4.94481C7.05541 4.87324 7.09333 4.80041 7.13184 4.72645C7.30353 4.39671 7.48692 4.04448 7.56014 3.6816C7.65824 3.19536 7.56608 2.69796 7.16315 2.13293ZM6.95954 6.22362C6.74987 6.46122 6.75 6.46134 6.74987 6.46122L6.95954 6.22362Z"
        fill="black" />
</svg>
