<svg width="24" height="24" viewBox="0 0 24 24" fill="none" xmlns="http://www.w3.org/2000/svg">
<path fill-rule="evenodd" clip-rule="evenodd" d="M1.61682 12.7258C1.61682 8.24733 5.24733 4.61682 9.72578 4.61682C11.3421 4.61682 12.8472 5.08941 14.1115 5.90398C13.8117 6.285 13.5663 6.71072 13.3871 7.16937C12.3368 6.476 11.0781 6.07227 9.72578 6.07227C6.05115 6.07227 3.07227 9.05115 3.07227 12.7258C3.07227 16.4004 6.05115 19.3793 9.72578 19.3793C13.0868 19.3793 15.8655 16.8874 16.3156 13.6502C16.7651 13.8149 17.2447 13.9166 17.7438 13.9444C17.1562 17.8446 13.79 20.8348 9.72578 20.8348C5.24733 20.8348 1.61682 17.2042 1.61682 12.7258ZM9.72578 4C11.4992 4 13.1497 4.52935 14.5271 5.43861C15.4264 4.54955 16.662 4 18.0239 4C20.7684 4 23 6.23162 23 8.97609C23 11.605 20.9523 13.7634 18.3677 13.9404C17.7764 18.1847 14.1328 21.4516 9.72578 21.4516C4.90667 21.4516 1 17.5449 1 12.7258C1 7.90667 4.90667 4 9.72578 4ZM9.72578 6.68909C11.0162 6.68909 12.2113 7.09364 13.1923 7.78298C13.0979 8.16532 13.0479 8.56495 13.0479 8.97609C13.0479 9.43624 13.1106 9.88197 13.228 10.3052C12.1706 10.1019 10.9822 9.98828 9.72704 9.98828C7.46662 9.98828 5.41177 10.3575 3.95051 10.9631C4.70468 8.48901 7.00504 6.68909 9.72578 6.68909ZM9.72704 10.6051C11.0929 10.6051 12.3707 10.7438 13.4712 10.9848C13.7917 11.7086 14.2799 12.3422 14.8862 12.836C12.5991 12.9481 10.7797 14.8378 10.7797 17.1524V18.6708C10.4375 18.7311 10.0853 18.7625 9.72578 18.7625C9.32951 18.7625 8.94216 18.7243 8.5672 18.6514V17.1524C8.5672 14.7656 6.63263 12.8307 4.24549 12.8307H3.68998C3.68939 12.7958 3.68909 12.7608 3.68909 12.7258C3.68909 12.3831 3.71765 12.047 3.77252 11.7199C5.13115 11.0504 7.28012 10.6051 9.72704 10.6051ZM16.0514 12.8495L16.0511 12.8629C16.6438 13.1649 17.3143 13.3354 18.0239 13.3354C20.4277 13.3354 22.3832 11.3799 22.3832 8.97609C22.3832 6.57228 20.4277 4.61682 18.0239 4.61682C15.6201 4.61682 13.6647 6.57228 13.6647 8.97609C13.6647 10.6594 14.6236 12.1229 16.024 12.849L16.0514 12.8495ZM7.95038 18.4972C5.70474 17.8072 4.01713 15.8426 3.73179 13.4475H4.24549C6.29193 13.4475 7.95038 15.1063 7.95038 17.1524V18.4972ZM15.7183 13.4598C15.4243 15.8862 13.6904 17.869 11.3966 18.5283V17.1524C11.3966 15.1073 13.0534 13.4491 15.0985 13.4475L15.7183 13.4598ZM9.67348 12.1743C9.29709 12.1743 8.99161 12.4796 8.99161 12.8562C8.99161 13.2326 9.29695 13.5377 9.67348 13.5377C10.05 13.5377 10.3553 13.2326 10.3553 12.8562C10.3553 12.4796 10.0499 12.1743 9.67348 12.1743ZM8.37479 12.8562C8.37479 12.1388 8.95657 11.5575 9.67348 11.5575C10.3904 11.5575 10.9722 12.1388 10.9722 12.8562C10.9722 13.5737 10.3902 14.1545 9.67348 14.1545C8.95671 14.1545 8.37479 13.5737 8.37479 12.8562ZM21.2973 8.83967L19.3279 6.87034C19.2071 6.7495 19.0112 6.7495 18.8903 6.87034C18.7695 6.99119 18.7695 7.18712 18.8903 7.30797L20.3314 8.74904H15.302C15.1311 8.74904 14.9926 8.88758 14.9926 9.05849C14.9926 9.22939 15.1311 9.36794 15.302 9.36794H20.3314L18.8903 10.809C18.7695 10.9298 18.7695 11.1258 18.8903 11.2466C19.0112 11.3675 19.2071 11.3675 19.3279 11.2466L21.2973 9.2773C21.4181 9.15645 21.4181 8.96052 21.2973 8.83967Z" fill="black"/>
</svg>
