<svg width="262" height="270" viewBox="0 0 262 270" fill="none" xmlns="http://www.w3.org/2000/svg">
    <g clip-path="url(#clip0_4952_28919)">
        <g clip-path="url(#clip1_4952_28919)">
            <path
                d="M131.361 257.682C203.357 257.682 261.722 251.311 261.722 243.453C261.722 235.594 203.357 229.224 131.361 229.224C59.3646 229.224 1 235.594 1 243.453C1 251.311 59.3646 257.682 131.361 257.682Z"
                fill="#D5D8DA" />
            <path
                d="M47.8323 6.46515L116.547 28.0741L184.895 6.46515L256.289 29.752L255.774 194.936L184.895 171.763L116.202 193.892L45.6348 169.688V5.27661L47.8323 6.46515Z"
                fill="#0E478A" />
            <path d="M185.119 167.989L116.43 189.735V31.9192L185.119 10.1729V167.989Z"
                fill="#D7DEE8" />
            <path
                d="M185.149 10.1729L185.119 167.911L229.943 183.096L251.824 189.735L252.687 32.3577L185.149 10.1729Z"
                fill="#F4F4F4" />
            <path
                d="M49.3818 10.9696V29.7879V158.348V167.29L60.1451 170.867L116.547 189.917V31.9913L114.158 31.2512L70.1735 17.2695L49.3818 10.9696Z"
                fill="#F4F4F4" />
            <path
                d="M74.466 175.764C74.466 175.764 53.3608 151.266 53.3613 132.767C53.3613 119.766 89.0273 91.2665 102.862 109.267C112.003 121.16 116.237 142.966 116.237 142.966V159.751C116.237 159.751 87.0982 157.462 83.4579 162.899C79.8177 168.335 78.5029 177.128 78.5029 177.128L74.466 175.764Z"
                fill="#EAEAEA" />
            <path
                d="M185.119 109.173L185.03 153.241C185.03 153.241 163.117 139.435 155.118 145.352C147.12 151.268 144.71 168.58 135.835 168.47C126.96 168.361 121.902 159.328 116.547 159.023V142.237C116.547 142.237 139.122 135.272 144.162 129.574C149.202 123.877 155.228 120.261 159.501 117.741C159.501 117.741 180.219 111.522 175.426 90.4738C170.633 69.426 161.763 71.5207 162.008 55.4614C162.254 39.4021 162.008 17.4893 162.008 17.4893L171.806 14.3876C171.806 14.3876 169.023 32.56 171.806 42.9423C174.589 53.3246 174.75 78.7434 178.607 84.4716C182.465 90.1997 185.132 98.0759 185.132 98.0759L185.119 109.173Z"
                fill="#C9C9C9" />
            <path
                d="M185.132 98.0759C185.132 98.0759 186.788 102.837 202.421 98.0759C218.053 93.3151 225.231 61.0766 234.919 55.9313C244.606 50.7859 245.408 49.2423 252.211 49.2423C252.211 65.2634 252.211 58.3471 252.211 58.3471C252.211 58.3471 232.151 76.3082 223.864 99.8489C215.576 123.39 213.413 159.526 199.222 156.383L185.03 153.24L185.132 98.0759Z"
                fill="#EAEAEA" />
            <path
                d="M230.782 107.437C234.469 107.437 237.458 104.448 237.458 100.761C237.458 97.0735 234.469 94.0845 230.782 94.0845C227.094 94.0845 224.105 97.0735 224.105 100.761C224.105 104.448 227.094 107.437 230.782 107.437Z"
                fill="#1D6686" />
            <path
                d="M230.782 40.7524C220.815 40.7524 212.738 48.6154 212.738 58.3195C212.738 75.8867 230.782 89.9404 230.782 89.9404C230.782 89.9404 248.825 75.8867 248.825 58.3195C248.825 48.6154 240.749 40.7524 230.782 40.7524ZM230.782 65.3463C226.798 65.3463 223.564 62.1984 223.564 58.3195C223.564 54.4407 226.798 51.2927 230.782 51.2927C234.766 51.2927 237.999 54.4407 237.999 58.3195C237.999 62.1984 234.766 65.3463 230.782 65.3463Z"
                fill="#237BA2" />
            <path
                d="M68.0741 111.931C74.276 111.931 79.3036 106.903 79.3036 100.701C79.3036 94.4995 74.276 89.4719 68.0741 89.4719C61.8723 89.4719 56.8447 94.4995 56.8447 100.701C56.8447 106.903 61.8723 111.931 68.0741 111.931Z"
                fill="#0B345E" />
            <path
                d="M68.0737 -0.233521C51.3091 -0.233521 37.7246 12.9922 37.7246 29.3146C37.7246 58.863 68.0737 82.5014 68.0737 82.5014C68.0737 82.5014 98.4228 58.863 98.4228 29.3146C98.4228 12.9922 84.8389 -0.233521 68.0737 -0.233521ZM68.0737 41.1339C61.3726 41.1339 55.9341 35.8389 55.9341 29.3146C55.9341 22.7904 61.3726 17.4954 68.0737 17.4954C74.7747 17.4954 80.2133 22.7904 80.2133 29.3146C80.2133 35.8389 74.7747 41.1339 68.0737 41.1339Z"
                fill="#0E478A" />
            <path
                d="M80 96.7665C84.1725 91.9667 94.4067 84.2058 102.09 82.5015C113.156 80.0466 114.404 86.0053 116.547 91.9405C118.689 97.8755 122.924 98.4418 128.799 90.4738C134.565 82.6532 184.443 140.956 229.252 111.214"
                stroke="#494949" stroke-width="3" stroke-miterlimit="10" stroke-dasharray="6 6" />
        </g>
        <path
            d="M111.239 232.742C111.239 232.742 111.316 234.878 110.409 238.956C109.145 243.123 107.534 244.36 107.534 244.36H93.7771C93.7771 244.36 98.7755 239.948 99.0395 232.873C99.0395 232.873 99.6286 227.368 97.5338 220.302C96.18 215.735 93.0088 215.456 93.0088 215.456C93.0088 215.456 101.132 213.724 102.125 216.693C103.188 219.875 100.368 228.922 100.368 228.922L100.633 232.837L111.239 232.742Z"
            fill="#282828" />
        <path
            d="M148.281 231.23C148.281 231.23 148.364 233.539 147.384 237.948C146.017 242.453 144.276 243.79 144.276 243.79H129.958C129.958 243.79 134.808 239.02 135.093 231.372C135.093 231.372 136.372 225.356 134.108 217.718C132.644 212.781 129.218 212.415 129.218 212.415C129.218 212.415 133.445 211.378 134.518 214.588C135.667 218.028 136.529 227.101 136.529 227.101L136.816 231.333L148.281 231.23Z"
            fill="#282828" />
        <path
            d="M190.502 231.87C190.502 231.87 190.482 236.169 191.223 238.882C192.441 243.345 194.89 243.453 194.89 243.453C194.89 243.453 197.695 241.968 198.606 239.782C199.516 237.597 201.083 231.354 201.083 231.354L190.502 231.87Z"
            fill="#3D3F3E" />
        <path
            d="M123.746 234.756L123.177 234.763C123.177 234.763 121.713 233.712 121.67 227.803C121.627 221.894 122.348 215.153 122.528 213.997C122.707 212.841 122.771 210.894 123.746 210.566C124.72 210.238 126.149 208.932 128.778 208.932C131.407 208.932 132.855 208.758 133.275 209.475C133.695 210.192 134.111 212.534 134.111 213.132C134.111 213.731 133.168 212.39 130.912 212.255C128.375 212.103 127.354 213.456 127.354 213.456L124.916 219.486L123.982 225.014L124.549 234.372L123.746 234.756Z"
            fill="#232323" />
        <path
            d="M181.12 118.654V112.018L101.196 110.184V208.279H112.625L113.449 134.673L125.523 131.616L122.161 121.07L130.873 119.083L180.392 120.764L181.12 118.654Z"
            fill="#6F94AD" />
        <path
            d="M31.7146 223.477L31.2274 224.466L23.6394 223.458L12.0039 222.181L102.097 208.108L112.655 207.69C112.655 207.69 113.195 207.797 113.711 208.582C114.226 209.366 113.074 211.074 113.418 211.348C114.108 211.894 120.614 211.348 120.614 211.348L120.29 213.438C120.29 213.438 95.0022 215.456 93.0094 215.456C91.0166 215.456 92.4812 216.246 91.3942 216.518C90.3072 216.79 89.3108 217.877 88.2238 221.138C87.2337 224.108 87.3709 231.588 87.6771 235.568C87.707 235.957 87.6323 235.087 87.6646 235.402L87.6368 235.773L87.3202 235.77L84.3287 235.812L46.8123 236.175V231.067L56.5197 227.932C56.5197 227.932 56.4291 225.848 55.1609 224.037C53.8928 222.225 51.6282 222.138 51.6282 222.138L42.1169 222.181C42.1169 222.181 40.3959 221.591 38.5842 224.761C36.7725 227.932 37.326 235.269 37.326 235.269C37.326 235.269 37.1349 234.454 36.682 232.098C36.229 229.743 36.4102 227.66 36.5008 225.939C36.5914 224.218 37.326 223.462 37.326 223.462C37.326 223.462 32.8003 223.576 31.7146 223.477Z"
            fill="#232323" />
        <path
            d="M85.6812 216.693V217.978L64.9496 220.772C64.9496 220.772 64.1114 220.269 64.2231 219.655C64.3349 219.04 85.6812 216.693 85.6812 216.693Z"
            fill="#155589" />
        <path
            d="M28.5082 240.145C29.4884 240.145 30.283 237.647 30.283 234.567C30.283 231.486 29.4884 228.989 28.5082 228.989C27.528 228.989 26.7334 231.486 26.7334 234.567C26.7334 237.647 27.528 240.145 28.5082 240.145Z"
            fill="#818791" />
        <path
            d="M135.665 228.102C135.665 236.766 132.636 243.79 129.218 243.79C125.799 243.79 123.028 236.766 123.028 228.102C123.028 219.438 125.838 211.902 129.218 212.415C133.581 213.077 135.665 219.438 135.665 228.102Z"
            fill="#474948" />
        <path
            d="M128.778 236.025C130.66 236.025 132.186 231.92 132.186 226.855C132.186 221.791 130.66 217.686 128.778 217.686C126.895 217.686 125.369 221.791 125.369 226.855C125.369 231.92 126.895 236.025 128.778 236.025Z"
            fill="#818791" />
        <path d="M217.617 228.593H152.525" stroke="#C0820B" stroke-miterlimit="10" />
        <path
            d="M180.489 119.161C180.489 119.161 179.018 118.701 170.212 118.275C161.407 117.849 125.613 116.938 125.613 116.938L121.39 116.944C121.39 116.944 118.662 116.636 118.699 119.161C118.736 121.685 118.698 128.897 118.698 128.897C118.698 128.897 118.993 129.751 119.876 129.986C120.759 130.221 121.274 130.295 121.274 130.295L120.438 130.567L116.608 131.528C116.608 131.528 113.513 132.136 112.976 133.139C112.439 134.143 112.122 134.962 112.042 136.892C111.963 138.822 112.66 208.29 112.66 208.29C112.66 208.29 112.594 211.155 113.993 211.621C115.392 212.088 121.189 211.621 121.189 211.621C121.189 211.621 121.892 207.663 123.426 207.713C124.959 207.762 131.744 206.628 131.744 206.628C131.744 206.628 133.095 205.396 134.371 207.457C134.371 207.457 136.765 211.589 137.102 217.992C137.44 224.394 137.777 228.867 137.777 228.867C137.777 228.867 137.824 231.26 139.742 231.516C141.659 231.771 151.417 231.513 151.417 231.513L152.482 217.711L153.101 211.877C158.365 212.118 163.519 211.332 163.519 211.332L215.314 205.848L212.038 143.954L192.668 131.68C192.668 131.68 192.245 128.483 189.671 125.137C187.097 121.79 184.694 119.675 180.489 119.161Z"
            fill="#0E3B59" />
        <path
            d="M178.984 118.99L146.69 117.649L121.39 116.958C121.39 116.958 118.989 116.812 118.946 117.974C118.903 119.136 119.592 119.265 119.592 119.265C119.592 119.265 120.558 119.566 121.732 119.652C122.907 119.738 129.925 120.341 133.843 123.785C137.761 127.23 138.192 129.124 138.192 129.124L191.438 130.581C191.438 130.581 190.528 126.94 188.435 124.846C186.341 122.753 185.099 120.779 178.984 118.99Z"
            fill="#0E478A" />
        <path
            d="M218.113 151.807C218.113 151.807 218.323 144.239 215.801 139.405C213.279 134.57 207.498 131.837 203.294 131.732C199.09 131.627 135.508 129.712 135.508 129.712L122.298 131.888C122.298 131.888 120.92 132.938 121.194 133.933C121.469 134.928 121.856 135.149 122.519 135.26C123.182 135.37 130.699 133.104 130.699 133.104C130.699 133.104 133.131 132.607 135.231 132.938C137.332 133.27 141.113 134.099 142.318 137.802C143.522 141.505 143.854 144.656 143.964 146.701C144.075 148.746 144.234 150.736 146.702 150.816C149.169 150.895 218.113 151.807 218.113 151.807Z"
            fill="#0E478A" />
        <path
            d="M143.964 146.701L146.33 208.719H162.769L220.591 209.475C220.591 209.475 220.003 174.909 219.181 166.16C218.358 157.411 218.699 156.471 218.117 153.298C217.535 150.125 212.599 150.595 212.599 150.595L143.964 146.701Z"
            fill="#0E478A" />
        <path
            d="M146.902 155.296L147.96 177.273C147.96 177.273 147.725 179.859 151.251 179.976C154.777 180.094 216.125 181.034 216.125 181.034C216.125 181.034 218.229 181.269 218.117 177.391C218.005 173.512 216.477 155.296 216.477 155.296C216.477 155.296 217.065 152.946 212.364 152.828C207.663 152.711 148.923 150.5 148.923 150.5C148.923 150.5 146.918 150.563 146.902 152.129C146.887 153.696 146.902 155.296 146.902 155.296Z"
            fill="#6B90B2" />
        <path
            d="M219.142 212.839C219.142 212.839 220.854 212.839 220.854 214.672C220.854 216.506 220.591 229.71 220.591 229.71C220.591 229.71 220.365 232.277 218.042 232.277H148.117C148.117 232.277 146.879 231.843 146.611 231.241C146.344 230.639 144.721 213.324 144.721 213.324C144.721 213.324 144.297 212.157 144.721 211.552C145.144 210.947 146.555 210.208 146.555 210.208L146.896 208.327L162.769 208.719L163.861 211.552L165.973 214.576C165.973 214.576 166.443 217.599 169.937 217.801C173.431 218.002 200.576 217.868 200.576 217.868L205.951 213.366L207.227 209.872L207.362 208.327H219.254L219.187 211.552L219.142 212.839Z"
            fill="#3F3F3F" />
        <path
            d="M166.054 188.595L204.763 189.129C204.763 189.129 207.658 189.575 207.703 192.336C207.748 195.098 207.703 211.891 207.703 211.891C207.703 211.891 205.832 215.565 204.496 216.624C203.159 217.682 202.313 218.395 201.289 218.484C200.264 218.573 171.043 218.484 171.043 218.484C171.043 218.484 168.281 218.751 165.742 215.188C163.203 211.624 162.944 211.058 162.944 211.058L162.356 191.535C162.356 191.535 162.446 188.951 166.054 188.595Z"
            fill="#586B72" />
        <path
            d="M165.097 192.225C165.152 193.259 167.2 193.499 167.2 193.499L204.846 193.977C204.846 193.977 206.12 191.287 204.846 190.601C203.571 189.915 165.974 190.601 165.974 190.601C165.974 190.601 165.018 190.711 165.097 192.225Z"
            fill="#2D2D2D" />
        <path
            d="M166.372 197.323C166.372 197.323 165.088 197.323 165.093 199.712C165.098 202.102 169.638 201.783 169.638 201.783L203.97 202.182C203.97 202.182 205.722 201.385 205.722 199.752C205.722 198.119 205.722 197.243 203.89 197.323C202.058 197.402 166.372 197.323 166.372 197.323Z"
            fill="#2D2D2D" />
        <path
            d="M166.849 205.049C166.849 205.049 165.339 205.482 165.575 207.12C165.811 208.759 167.487 209.44 168.92 209.475C170.354 209.51 203.411 209.829 203.411 209.829C203.411 209.829 205.421 209.191 205.412 207.439C205.403 205.687 204.845 205.049 202.774 205.049H166.849Z"
            fill="#2D2D2D" />
        <path
            d="M168.841 212.415L202.058 212.856C202.058 212.856 203.651 213.652 202.058 215.245C200.465 216.838 199.987 216.599 199.987 216.599L171.151 216.122C171.151 216.122 169.957 216.122 168.841 214.847C167.726 213.573 167.965 212.403 168.841 212.415Z"
            fill="#2D2D2D" />
        <path
            d="M178.031 222.181L195.784 222.403C195.784 222.403 196.598 222.234 196.565 224.88C196.531 227.526 196.225 228.544 195.513 228.578C194.8 228.612 178.313 228.578 178.313 228.578C178.313 228.578 177.261 228.51 177.227 227.289C177.193 226.067 177.227 222.98 177.227 222.98C177.227 222.98 177.446 222.174 178.031 222.181Z"
            fill="#D6D4D5" />
        <path d="M195.693 222.476H178.651V226.12H195.693V222.476Z" fill="#FBFBFB" />
        <path
            d="M158.309 200.696C158.309 200.696 157.887 199.051 156.519 198.9C155.151 198.749 150.754 198.465 150.528 199.717C150.302 200.968 150.528 206.786 150.528 206.786C150.528 206.786 150.239 207.446 152.526 207.566C154.813 207.685 157.858 207.95 158.309 207.278C158.76 206.606 158.309 202.282 158.309 200.696Z"
            fill="#B79056" />
        <path
            d="M211.329 207.278C211.329 207.278 211.536 208.328 213.566 208.328C215.596 208.328 218.054 208.405 218.122 206.906C218.189 205.406 218.117 201.448 218.117 201.448C218.117 201.448 218.189 199.769 216.16 199.289C216.16 199.289 212.038 199.082 211.812 200.222L211.329 207.278Z"
            fill="#B79056" />
        <path d="M101.296 110.206L11.8613 146.187V222.097L101.177 208.267" fill="#BED4E5" />
        <path
            d="M208.202 243.453C208.202 243.453 209.882 243.031 211.696 240.008C213.511 236.984 214.07 232.318 214.07 232.318L200.034 232.182C199.145 240.08 194.89 243.453 194.89 243.453H208.202Z"
            fill="#282828" />
        <path
            d="M99.3136 229.846C99.3136 237.794 96.9065 244.36 93.5671 244.36C90.2276 244.36 86.9629 237.794 86.9629 229.846C86.9629 221.899 89.67 215.456 93.0095 215.456C96.3489 215.456 99.3136 221.899 99.3136 229.846Z"
            fill="#474948" />
        <path
            d="M91.7963 237.211C93.2759 237.211 94.4753 233.897 94.4753 229.808C94.4753 225.72 93.2759 222.406 91.7963 222.406C90.3166 222.406 89.1172 225.72 89.1172 229.808C89.1172 233.897 90.3166 237.211 91.7963 237.211Z"
            fill="#818791" />
        <path
            d="M43.1555 237.29C43.1555 237.29 43.2179 239.019 42.4841 242.319C41.4607 245.692 40.157 246.693 40.157 246.693H29.0241C29.0241 246.693 33.0692 243.122 33.2828 237.396C33.2828 237.396 33.7595 232.941 32.0643 227.223C30.9687 223.527 28.4023 223.301 28.4023 223.301C28.4023 223.301 34.9766 221.899 35.7796 224.302C36.6403 226.878 34.3578 234.199 34.3578 234.199L36.2532 235.773L43.1555 237.29Z"
            fill="#282828" />
        <path
            d="M39.8423 238.473C39.8423 238.473 39.9398 239.583 39.6667 241.299C39.3937 243.016 38.9646 243.741 38.0869 245.407C38.6609 244.857 40.6225 243.527 40.6225 238.627C40.1739 238.608 39.8423 238.473 39.8423 238.473Z"
            fill="#707070" />
        <path
            d="M33.5698 234.947C33.5698 241.378 31.8303 246.693 29.1278 246.693C26.4253 246.693 23.7832 241.378 23.7832 234.947C23.7832 228.515 25.974 223.301 28.6765 223.301C31.379 223.301 33.5698 228.515 33.5698 234.947Z"
            fill="#474948" />
        <path
            d="M27.42 240.907C28.6175 240.907 29.5881 238.225 29.5881 234.916C29.5881 231.607 28.6175 228.925 27.42 228.925C26.2226 228.925 25.252 231.607 25.252 234.916C25.252 238.225 26.2226 240.907 27.42 240.907Z"
            fill="#818791" />
        <path
            d="M33.9282 229.039C34.3479 231.409 34.2841 236.65 34.2841 236.65H38.0589V224.893C38.0589 223.717 39.2966 222.974 39.2966 222.974L37.9971 222.913C36.6975 222.851 30.2617 223.284 30.2617 223.284C30.2617 223.284 33.139 224.583 33.9282 229.039Z"
            fill="#155589" />
        <path d="M86.7667 224.466V227.287L58.4375 229.606V227.287L86.7667 224.466Z"
            fill="#155589" />
        <path d="M85.1741 228.405L85.8952 231.698L64.3371 233.465L63.999 230.333L85.1741 228.405Z"
            fill="#155589" />
        <path
            d="M56.0853 235.92C56.0853 235.92 56.1511 238.604 55.3776 242.083C54.299 245.637 52.9248 246.693 52.9248 246.693H41.1905C41.1905 246.693 45.4541 242.929 45.6793 236.894C45.6793 236.894 46.1817 232.198 44.395 226.171C43.2402 222.276 40.5352 222.037 40.5352 222.037C40.5352 222.037 47.4645 220.56 48.3109 223.093C49.2181 225.807 46.8123 233.524 46.8123 233.524L47.0389 236.001L56.0853 235.92Z"
            fill="#282828" />
        <path
            d="M45.9667 234.312C45.9667 241.091 44.1332 246.693 41.2847 246.693C38.4362 246.693 35.6514 241.091 35.6514 234.312C35.6514 227.533 37.9605 222.037 40.809 222.037C43.6575 222.037 45.9667 227.533 45.9667 234.312Z"
            fill="#474948" />
        <path
            d="M39.5001 240.594C40.7622 240.594 41.7853 237.767 41.7853 234.28C41.7853 230.793 40.7622 227.966 39.5001 227.966C38.238 227.966 37.2148 230.793 37.2148 234.28C37.2148 237.767 38.238 240.594 39.5001 240.594Z"
            fill="#818791" />
        <path
            d="M42.4424 221.883H51.1084C51.1084 221.883 53.0926 222.134 54.2356 223.013C54.2356 223.013 56.0009 223.893 56.5084 226.153C57.016 228.414 57.016 235.259 57.016 235.259H46.901C46.901 235.259 47.4662 224.269 42.4424 221.883Z"
            fill="#155589" />
        <path
            d="M142.643 146.397L144.57 205.579H139.316C139.316 205.579 138.135 204.828 137.027 202.834C135.919 200.841 136.215 199.364 134.221 199.29C132.227 199.216 112.663 200.615 112.663 200.615L112.15 154.305L142.643 146.397Z"
            fill="#15497C" />
        <path
            d="M128.985 175.167C128.985 175.167 132.942 178.999 136.623 181.037C140.304 183.074 142.929 184.707 142.894 182.938L142.317 153.354C142.317 153.354 142.076 152.4 137.578 153.354C133.079 154.308 128.852 155.005 128.989 156.232L128.985 175.167Z"
            fill="#6B90B2" />
        <path
            d="M140.317 206.354C137.857 205.388 125.358 205.83 123.636 206.059C121.914 206.289 121.53 208.539 121.022 209.762C120.514 210.984 120.29 213.151 120.29 213.151C120.29 213.151 101.429 214.745 100.518 214.827C99.6069 214.91 99.4036 215.003 99.3522 216.406C99.3009 217.808 99.812 228.276 99.8694 231.067C99.9268 233.858 101.123 235.107 101.123 235.107L122.487 234.774L123.177 234.763C122.947 234.648 122.258 231.72 122.258 231.72C122.258 231.72 121.627 226.152 121.914 222.181C122.201 218.21 122.353 213.168 123.028 211.717C124.046 209.527 126.36 209.647 128.369 209.56C130.378 209.472 131.415 209.447 132.496 211.15C132.811 211.648 133.361 212.786 133.526 213.18C134 214.318 134.871 216.49 135.099 217.959C135.712 221.916 136.057 227.33 136.057 228.593C136.057 228.991 136.083 230.891 136.061 231.605L145.806 231.644C145.806 231.644 145.345 208.328 140.317 206.354Z"
            fill="#155589" />
        <path d="M122.308 130.413L138.192 129.124L191.439 130.581" stroke="#0A2F54" stroke-width="2"
            stroke-miterlimit="10" />
        <path
            d="M63.6973 170.716C63.6518 168.221 63.921 165.326 64.6241 162.495C65.1233 160.485 65.6743 158.471 66.4195 156.543C67.223 154.463 68.3232 152.486 70.231 151.187C71.0112 150.655 71.9712 150.377 72.8665 150.027C74.0172 149.578 75.1854 149.173 76.3457 148.749C77.4342 148.35 78.5211 147.948 79.6114 147.554C80.03 147.403 80.4729 147.309 80.8755 147.125C82.4737 146.394 83.8429 146.839 85.0678 147.935C86.426 149.15 87.2155 150.729 87.8403 152.409C89.3514 156.473 89.5869 160.697 89.3917 164.966C89.3125 166.698 89.194 168.435 88.9615 170.151C88.7768 171.514 88.4905 172.882 88.071 174.19C87.473 176.055 86.8214 177.919 85.9899 179.688C85.1429 181.49 84.0597 183.218 82.2506 184.227C81.4256 184.687 80.4395 184.871 79.513 185.133C78.694 185.364 77.8573 185.533 77.0264 185.721C76.2896 185.887 75.55 186.042 74.8117 186.202C74.2443 186.325 73.6742 186.438 73.1105 186.576C72.3955 186.752 71.6784 186.925 70.9758 187.143C70.1062 187.413 69.3453 187.117 68.6351 186.698C67.1896 185.845 66.3616 184.471 65.7286 182.983C64.1195 179.2 63.6562 175.211 63.6973 170.716ZM67.4372 170.012C67.4372 171.447 67.5982 172.856 67.8613 174.266C68.075 175.412 68.7531 176.469 69.642 177.288C70.1119 177.72 70.6509 177.876 71.263 177.722C71.8662 177.57 72.4589 177.377 73.0598 177.215C74.581 176.806 76.1039 176.403 77.6268 176C78.6612 175.726 79.7176 175.517 80.7269 175.171C82.3345 174.619 83.0619 173.215 83.6418 171.78C84.4205 169.853 84.8149 167.828 84.8675 165.739C84.9292 163.289 84.8968 160.853 83.7638 158.599C83.5076 158.089 83.1313 157.611 82.7152 157.219C82.2334 156.765 81.6365 156.57 80.9334 156.81C77.9794 157.815 75.0335 158.85 72.0498 159.761C70.6648 160.183 69.8266 161.071 69.2281 162.278C68.025 164.706 67.4372 168.266 67.4372 170.012Z"
            fill="#0E478A" />
        <path
            d="M40.3608 177.766C40.3608 172.615 40.3746 167.918 40.3608 162.766C40.3592 162.165 40.8087 161.752 41.3538 161.586C42.1796 161.333 42.976 160.986 43.7873 160.685C44.5458 160.404 45.3072 160.131 46.0679 159.855C46.8816 159.561 47.6958 159.267 48.5102 158.975C49.343 158.675 50.1769 158.378 51.0092 158.077C51.7352 157.815 52.5007 157.625 53.1769 157.267C54.9869 156.31 56.4556 157.079 57.3185 158.298C57.9648 159.211 58.512 160.213 58.9704 161.235C59.7577 162.991 60.0294 164.89 60.3124 166.78C60.6813 169.242 60.7466 171.722 60.5559 174.194C60.4064 176.133 60.1168 178.064 59.8117 179.987C59.6357 181.095 59.3776 182.203 59.0298 183.269C58.2317 185.717 57.3214 188.106 55.5051 190.049C54.6499 190.964 53.5545 191.178 52.4558 191.461C51.6147 191.678 50.7641 191.858 49.918 192.055C49.2587 192.209 48.6018 192.373 47.9402 192.516C47.2039 192.676 46.4613 192.806 45.7254 192.967C44.8209 193.165 43.9176 193.37 43.0191 193.593C42.3079 193.77 41.5997 193.962 40.8999 194.179C40.5681 194.282 40.3724 194.115 40.3612 193.766C40.355 193.572 40.3611 193.462 40.3611 193.266C40.3613 188.193 40.3615 183.34 40.3615 178.266C40.362 177.945 40.3608 177.766 40.3608 177.766ZM43.692 176.465C43.6567 176.465 43.7272 177.065 43.692 177.065C43.692 178.158 43.6965 179.25 43.6908 180.342C43.6838 181.708 43.6647 183.073 43.6599 184.438C43.6589 184.696 43.5937 185.077 44.0393 184.977C44.9103 184.783 45.7715 184.543 46.6332 184.309C47.719 184.014 48.7987 183.697 49.8857 183.406C50.9733 183.116 52.0652 182.841 53.1581 182.571C54.0065 182.361 54.6541 181.85 55.0446 181.109C55.5048 180.236 55.941 179.326 56.2107 178.382C56.8022 176.311 57.0736 174.179 56.898 172.024C56.8084 170.924 56.6063 169.827 56.3601 168.75C56.2147 168.114 55.9803 167.455 55.6159 166.922C54.831 165.776 54.2768 165.658 53.4404 165.942C50.4697 166.949 47.5006 167.962 44.5147 168.924C43.9471 169.106 43.6875 169.384 43.6908 169.923C43.7054 172.302 43.692 174.086 43.692 176.465Z"
            fill="#0E478A" />
        <path
            d="M23.8772 168.031C25.558 174.987 27.2229 181.877 28.8878 188.767C28.9555 188.77 29.0232 188.772 29.0909 188.774C29.2266 188.246 29.3719 187.72 29.4956 187.188C29.7112 186.263 29.9176 185.334 30.1198 184.406C30.2478 183.817 30.3611 183.226 30.4814 182.636C30.8773 180.693 31.2498 178.745 31.6753 176.809C32.2 174.422 32.7834 172.047 33.313 169.661C33.6203 168.277 33.8679 166.879 34.1505 165.489C34.2314 165.091 34.2413 164.624 34.4651 164.324C34.6809 164.035 35.1182 163.89 35.481 163.735C36.027 163.502 36.5879 163.3 37.1526 163.116C37.3628 163.047 37.6015 163.066 37.8272 163.045C37.8367 163.263 37.8912 163.489 37.8487 163.696C37.5482 165.161 37.236 166.623 36.9117 168.082C36.4645 170.094 35.9984 172.101 35.5502 174.112C35.2756 175.344 35.02 176.58 34.7548 177.814C34.4691 179.143 34.1811 180.472 33.8961 181.801C33.5868 183.243 33.2883 184.688 32.9693 186.129C32.6923 187.379 32.38 188.621 32.1076 189.873C31.8023 191.275 31.529 192.683 31.2321 194.087C31.1001 194.711 30.9613 195.335 30.7939 195.95C30.6582 196.449 30.3406 196.706 29.7828 196.756C29.1334 196.814 28.4985 197.025 27.8494 197.104C27.6754 197.125 27.361 196.95 27.3026 196.794C27.0927 196.232 26.9445 195.645 26.8094 195.058C26.2681 192.709 25.7545 190.353 25.2041 188.006C24.5739 185.319 23.9013 182.641 23.2739 179.953C22.7395 177.664 22.2551 175.363 21.7246 173.073C21.4619 171.938 21.1267 170.821 20.8703 169.686C20.8259 169.489 20.9532 169.101 21.1005 169.04C21.9659 168.68 22.8607 168.391 23.8772 168.031Z"
            fill="#0E478A" />
    </g>
    <defs>
        <clipPath id="clip0_4952_28919">
            <rect width="260.722" height="269.234" fill="white" transform="translate(0.638672)" />
        </clipPath>
        <clipPath id="clip1_4952_28919">
            <rect width="260.722" height="269.234" fill="white"
                transform="translate(1 -0.233521)" />
        </clipPath>
    </defs>
</svg>
