<svg width="24" height="24" viewBox="0 0 24 24" fill="none" xmlns="http://www.w3.org/2000/svg">
<path d="M1.26 7.00021V7C1.26 6.03644 2.0397 5.25 3 5.25H8.89645L10.8232 7.17678L10.8964 7.25H11H19C19.9619 7.25 20.75 8.03807 20.75 9V19C20.75 19.9619 19.9619 20.75 19 20.75H3C2.0381 20.75 1.25005 19.962 1.25 19.0001C1.25 19.0001 1.25 19 1.25 19L1.26 7.00021Z" fill="white" stroke="#0E478A" stroke-width="0.5"/>
<path d="M2.26 6.00021V6C2.26 5.03644 3.0397 4.25 4 4.25H9.89645L11.8232 6.17678L11.8964 6.25H12H20C20.9619 6.25 21.75 7.03807 21.75 8V18C21.75 18.9619 20.9619 19.75 20 19.75H4C3.0381 19.75 2.25005 18.962 2.25 18.0001C2.25 18.0001 2.25 18 2.25 18L2.26 6.00021Z" fill="white" stroke="#0E478A" stroke-width="0.5"/>
<path d="M3.51 5.00042V5C3.51 4.17287 4.1794 3.5 5 3.5H10.7929L12.6464 5.35355L12.7929 5.5H13H21C21.8239 5.5 22.5 6.17614 22.5 7V17C22.5 17.8239 21.8239 18.5 21 18.5H5C4.17621 18.5 3.5001 17.824 3.5 17.0002C3.5 17.0001 3.5 17.0001 3.5 17L3.51 5.00042Z" fill="white" stroke="#0E478A"/>
<path d="M13.2489 10.1818H14.9904L16.4677 13.7841H16.5359L18.0131 10.1818H19.7546V16H18.3853V12.4261H18.337L16.9393 15.9631H16.0643L14.6665 12.4062H14.6183V16H13.2489V10.1818Z" fill="#0E478A"/>
</svg>
