<svg width="68" height="68" viewBox="0 0 68 68" fill="none" xmlns="http://www.w3.org/2000/svg">
<path d="M34.0003 67.3327C29.3892 67.3327 25.0559 66.4577 21.0003 64.7077C16.9448 62.9577 13.417 60.5827 10.417 57.5827C7.41699 54.5827 5.04199 51.0549 3.29199 46.9994C1.54199 42.9438 0.666992 38.6105 0.666992 33.9993C0.666992 29.3882 1.54199 25.0549 3.29199 20.9993C5.04199 16.9438 7.41699 13.416 10.417 10.416C13.417 7.41602 16.9448 5.04102 21.0003 3.29102C25.0559 1.54102 29.3892 0.666016 34.0003 0.666016C38.6114 0.666016 42.9448 1.54102 47.0003 3.29102C51.0559 5.04102 54.5837 7.41602 57.5837 10.416C60.5837 13.416 62.9587 16.9438 64.7087 20.9993C66.4587 25.0549 67.3337 29.3882 67.3337 33.9993C67.3337 38.6105 66.4587 42.9438 64.7087 46.9994C62.9587 51.0549 60.5837 54.5827 57.5837 57.5827C54.5837 60.5827 51.0559 62.9577 47.0003 64.7077C42.9448 66.4577 38.6114 67.3327 34.0003 67.3327ZM34.0003 60.666C41.4448 60.666 47.7503 58.0827 52.917 52.916C58.0837 47.7493 60.667 41.4438 60.667 33.9993C60.667 30.9993 60.1809 28.1105 59.2087 25.3327C58.2364 22.5549 56.8337 19.9993 55.0003 17.666L17.667 54.9994C20.0003 56.8327 22.5559 58.2355 25.3337 59.2077C28.1114 60.1799 31.0003 60.666 34.0003 60.666ZM13.0003 50.3327L50.3337 12.9993C48.0003 11.166 45.4448 9.76324 42.667 8.79102C39.8892 7.81879 37.0003 7.33268 34.0003 7.33268C26.5559 7.33268 20.2503 9.91602 15.0837 15.0827C9.91699 20.2493 7.33366 26.5549 7.33366 33.9993C7.33366 36.9993 7.81977 39.8882 8.79199 42.666C9.76421 45.4438 11.167 47.9994 13.0003 50.3327Z" fill="#BA1A1A"/>
</svg>
