<svg width="24" height="24" viewBox="0 0 24 24" fill="none" xmlns="http://www.w3.org/2000/svg">
<path d="M1.511 5.25041V5.25C1.511 4.27469 2.27989 3.5 3.2 3.5H9.58959L11.6425 5.59956L11.7896 5.75H12H20.8C21.7233 5.75 22.5 6.52799 22.5 7.5V18.75C22.5 19.722 21.7233 20.5 20.8 20.5H3.2C2.27673 20.5 1.50009 19.7221 1.5 18.7502C1.5 18.7501 1.5 18.7501 1.5 18.75L1.511 5.25041Z" fill="white" stroke="#0E478A"/>
<path d="M18.4446 13.9261C18.4257 13.7178 18.3414 13.5559 18.1918 13.4403C18.044 13.3229 17.8329 13.2642 17.5582 13.2642C17.3764 13.2642 17.2249 13.2879 17.1037 13.3352C16.9825 13.3826 16.8916 13.4479 16.831 13.5312C16.7704 13.6127 16.7391 13.7064 16.7372 13.8125C16.7334 13.8996 16.7505 13.9763 16.7884 14.0426C16.8281 14.1089 16.8849 14.1676 16.9588 14.2188C17.0346 14.268 17.1255 14.3116 17.2315 14.3494C17.3376 14.3873 17.4569 14.4205 17.5895 14.4489L18.0895 14.5625C18.3774 14.625 18.6312 14.7083 18.8509 14.8125C19.0724 14.9167 19.258 15.0407 19.4077 15.1847C19.5592 15.3286 19.6738 15.4943 19.7514 15.6818C19.8291 15.8693 19.8688 16.0795 19.8707 16.3125C19.8688 16.6799 19.776 16.9953 19.5923 17.2585C19.4086 17.5218 19.1444 17.7235 18.7997 17.8636C18.4569 18.0038 18.0431 18.0739 17.5582 18.0739C17.0715 18.0739 16.6473 18.0009 16.2855 17.8551C15.9238 17.7093 15.6425 17.4877 15.4418 17.1903C15.241 16.893 15.1378 16.517 15.1321 16.0625H16.4787C16.4901 16.25 16.5402 16.4062 16.6293 16.5312C16.7183 16.6562 16.8404 16.7509 16.9957 16.8153C17.1529 16.8797 17.3348 16.9119 17.5412 16.9119C17.7306 16.9119 17.8916 16.8864 18.0241 16.8352C18.1586 16.7841 18.2618 16.7131 18.3338 16.6222C18.4058 16.5312 18.4427 16.4271 18.4446 16.3097C18.4427 16.1998 18.4086 16.1061 18.3423 16.0284C18.276 15.9489 18.1738 15.8807 18.0355 15.8239C17.8991 15.7652 17.7249 15.7112 17.5128 15.6619L16.9048 15.5199C16.401 15.4044 16.0043 15.2178 15.7145 14.9602C15.4247 14.7008 15.2808 14.3504 15.2827 13.9091C15.2808 13.5492 15.3774 13.2339 15.5724 12.9631C15.7675 12.6922 16.0374 12.4811 16.3821 12.3295C16.7268 12.178 17.1198 12.1023 17.5611 12.1023C18.0118 12.1023 18.4029 12.179 18.7344 12.3324C19.0677 12.4839 19.3262 12.697 19.5099 12.9716C19.6937 13.2462 19.7874 13.5644 19.7912 13.9261H18.4446Z" fill="#0E478A"/>
</svg>
